<?xml version="1.0" encoding="UTF-8"?>
<svg version="1.1" viewBox="0 0 1600 1600" width="700" height="700" xmlns="http://www.w3.org/2000/svg">
<path transform="translate(807,44)" d="m0 0h10l14 3 22 8 19 9 21 9 19 10 22 11 28 13 15 8 69 32 25 14 28 13 29 14 25 11 24 11 16 8 19 9 23 11 34 16 23 11 17 8 23 11 26 11 52 25 26 12 19 10 21 14 10 9 7 11 5 11 2 7 1 12v784l-2 12-6 17-6 11-12 12-14 8-30 14-36 17-34 16-25 11-39 19-23 11-37 17-23 11-24 11-29 13-36 17-25 12-29 13-34 16-31 15-23 11-28 13-34 16-29 14-23 11-34 16-15 5-11 1-12-3-20-8-20-9-39-19-16-8-25-12-24-12-28-13-24-11-30-14-32-15-20-9-38-18-29-13-31-15-33-15-35-17-28-13-38-19-36-16-38-18-23-11-28-12-17-9-8-7-8-11-5-11-3-12-1-11v-785l3-16 7-14 11-13 12-9 17-10 24-11 22-11 16-7 16-8 21-9 64-32 33-15 25-12 39-19 16-8 40-18 38-19 33-15 38-19 26-12 29-14 28-13 20-9 15-8 48-23 23-10 17-5z" fill="#F9FAFB"/>
<path transform="translate(192,413)" d="m0 0h9l29 12 32 14 46 22 37 16 24 11 22 11 30 13 23 10 34 16 21 10 16 8 28 13 24 11 32 15 54 27 28 12 31 14 15 7 23 10 19 9 7 5 1 5-1 27v741l-1 3-5-1-28-13-17-8-16-8-28-13-39-19-30-14-38-18-33-16-28-12-30-14-19-9-27-12-70-32-41-20-18-8-25-12-33-15-26-12-18-8-10-9-5-10-1-5v-751z" fill="#301538"/>
<path transform="translate(1424,410)" d="m0 0h5l1 74v686l-2 9-9 10-14 7-129 59-23 11-16 8-33 15-20 9-16 8-14 6-16 8-29 14-26 12-31 15-29 13-27 14-23 11-24 11-20 9-28 13-29 14-19 8h-4l-1-3-1-16v-488l-1-234-1-33 17-9 23-11 28-13 19-10 21-11 26-11 16-8 28-13 21-9 16-8 21-10 16-8 25-12 20-9 30-14 16-8 45-20 24-11 20-9 16-8 23-10 19-9 13-6 22-10 51-22z" fill="#301538"/>
<path transform="translate(809,117)" d="m0 0 8 1 16 7 26 12 35 17 19 10 36 17 39 19 27 12 19 9 16 8 52 25 32 15 23 10 19 10 32 15 23 11 17 8 17 9 21 9 19 9 19 10 37 17 7 4v4l-23 12-26 11-15 7-33 15-34 17-29 12-30 14-28 12-46 22-16 8-29 14-18 8-25 12-16 8-28 13-26 12-16 8-26 12-16 8-27 14-15 7-24 10-4 1h-7l-20-7-27-12-22-12-28-13-21-9-16-8-27-13-23-10-24-12-23-11-33-15-26-12-46-22-23-10-26-12-29-13-21-9-34-14-16-8-28-13-24-11-16-9-5-5 2-4 84-39 34-16 22-11 28-13 36-17 28-13 31-15 23-11 34-16 18-8 51-25 20-9 25-12 19-10 18-8 16-8 34-16 24-11z" fill="#301538"/>
<path transform="translate(807,44)" d="m0 0h10l14 3 22 8 19 9 21 9 19 10 22 11 28 13 15 8 69 32 25 14 28 13 29 14 25 11 24 11 16 8 19 9 23 11 34 16 23 11 17 8 23 11 26 11 52 25 26 12 19 10 21 14 10 9 7 11 5 11 2 7 1 12v784l-2 12-6 17-6 11-12 12-14 8-30 14-36 17-34 16-25 11-39 19-23 11-37 17-23 11-24 11-29 13-36 17-25 12-29 13-34 16-31 15-23 11-28 13-34 16-29 14-23 11-34 16-15 5-11 1-12-3-20-8-20-9-39-19-16-8-25-12-24-12-28-13-24-11-30-14-32-15-20-9-38-18-29-13-31-15-33-15-35-17-28-13-38-19-36-16-38-18-23-11-28-12-17-9-8-7-8-11-5-11-3-12-1-11v-785l3-16 7-14 11-13 12-9 17-10 24-11 22-11 16-7 16-8 21-9 64-32 33-15 25-12 39-19 16-8 40-18 38-19 33-15 38-19 26-12 29-14 28-13 20-9 15-8 48-23 23-10 17-5zm-3 34-17 5-15 6-42 20-45 22-30 14-21 9-50 25-16 7-16 8-27 13-18 8-24 12-23 11-26 12-44 21-24 11-16 8-32 15-18 8-47 23-23 11-16 8-35 16-14 8-10 9-4 11-1 17v222l1 553 2 11 5 9 7 6 15 8 25 11 26 12 25 12 14 6 17 9 23 11 28 13 16 8 32 15 25 11 24 11 27 12 19 9 16 8 26 12 20 9 19 9 18 8 28 13 22 11 28 13 20 9 50 25 23 11 35 17 24 9 9-2 21-9 43-21 23-11 47-23 25-11 24-11 15-8 24-11 33-15 16-8 36-17 23-11 26-12 37-18 29-13 39-18 39-19 23-11 40-19 37-17 25-11 13-8 6-8 4-9 2-11v-698l-1-93-5-10-8-7-17-9-23-11-17-8-16-8-28-13-19-10-29-14-21-9-45-22-20-9-30-14-47-23-32-16-33-15-51-25-23-11-20-9-43-21-44-21-19-10-21-9-24-10-14-4z" fill="#301539"/>
<path transform="translate(1463,388)" d="m0 0 3 3 2 5 1 93v698l-3 14-5 9-5 6-16 9-27 12-33 15-31 15-23 11-38 18-29 14-36 16-40 19-29 14-23 11-56 26-16 8-26 12-20 9-19 10-38 17-23 11-74 36-23 11-17 7-9 2-19-7-15-7 3-1 16 7 14 5h3l1-31v-780l1-11 29-14 3 1 1 32 1 241v481l1 19 14-5 25-12 30-14 20-9 28-13 25-12 23-11 15-8 29-13 33-16 28-13 26-12 15-8 21-9 16-8 55-25 15-8 33-15 32-15 83-38 6-4 6-7 2-9v-760h-5l3-2 16-8 21-7z" fill="#A4B4CD"/>
<path transform="translate(1382,631)" d="m0 0 4 1 6 7 1 3v13l-4 10-9 6-17 9-35 15-29 14-44 19-24 11-28 13-24 11-21 10-33 15-16 8-35 16-28 13-30 13-38 18-25 12-34 15-16 6-7-1-6-6-1-3v-11l5-10 9-7 26-13 19-10 34-16 18-8 23-10 33-16 30-13 35-17 26-12 21-9 34-16 28-12 26-12 29-13 30-13 38-17 21-9z" fill="#727CEF"/>
<path transform="translate(1384,556)" d="m0 0 4 4 3 10 1 9-2 7-9 8-24 13-18 8-27 11-26 12-23 10-30 13-25 12-26 11-16 7-34 16-39 17-24 11-23 11-20 9-36 17-39 19-19 10-18 8-10 3h-6l-7-7-2-3 1-10 5-10 9-8 16-9 20-9 27-12 26-13 20-9 18-8 25-11 17-8 17-9 28-13 21-9 24-11 72-33 25-11 24-10 36-16 28-12 29-12z" fill="#727DEF"/>
<path transform="translate(1378,481)" d="m0 0h5l6 9 3 8-1 9-6 8-23 12-28 12-24 11-33 15-21 9-29 13-27 12-34 16-28 13-35 17-36 16-37 17-25 11-19 9-14 7-23 10-17 9-27 12h-7l-7-5-2-3v-7l4-10 5-7 10-7 13-8 17-8 43-19 16-8 32-15 18-8 38-18 34-16 23-11 28-13 18-8 33-16 28-12 21-10 60-25 26-11 16-7z" fill="#727DF0"/>
<path transform="translate(1384,709)" d="m0 0 4 2 4 13v9l-3 6-7 6-21 10-21 9-25 11-29 13-21 9-26 12-23 11-60 27-34 16-33 15-29 14-17 8-16 8-29 14-37 17-22 10-22 12-11 5-8 1-7-6-3-6v-7l4-9 7-8 11-7 23-12 61-28 35-17 24-11 16-8 29-13 24-11 39-19 36-16 32-15 30-13 40-18 28-12 20-9 35-12z" fill="#665FDC"/>
<path transform="translate(1382,984)" d="m0 0h4l4 10 1 11-2 8-5 6-14 7-25 11-25 12-26 12-38 17-42 19-24 11-31 14-36 16-21 10-20 9-91 42-37 18-23 11-26 12-8 1-7-7-2-4 1-10 3-6 7-8 21-12 16-8 23-11 24-11 28-13 35-17 24-11 25-11 36-17 56-26 25-11 21-9 60-27 21-9 17-8 37-15z" fill="#7674EF"/>
<path transform="translate(391,350)" d="m0 0 10 3 25 13 24 10 36 16 30 14 33 15 27 13 26 12 23 11 37 17 28 12 16 8 29 14 20 9 39 19 24 12 35 15 19 10 2 1-2 4-10 7-16 9-2 2-7-1-16-7-27-13-27-12-21-9-52-25-28-13-16-8-69-32-20-9-24-11-17-8-29-13-40-19-25-11-29-13-18-10-9-7-4-3 2-4 11-7z" fill="#2BC1FD"/>
<path transform="translate(470,311)" d="m0 0 6 1 14 6 19 8 16 8 24 11 36 16 58 27 22 11 27 12 24 11 23 11 24 11 26 12 16 8 30 14 16 7 28 13 27 13 33 15 14 8 1 4-9 7-11 8-7 6-6 1-28-16-26-12-19-8-46-22-35-17-20-9-19-9-20-9-43-21-33-15-15-7-18-8-10-5-16-7-37-17-34-16-15-8-23-11-13-7-5-3 1-3 11-7 10-9z" fill="#2BC1FD"/>
<path transform="translate(1384,1128)" d="m0 0h3l5 10v10l-4 12-9 6-38 18-16 8-29 13-38 18-25 11-28 13-38 18-33 16-28 13-31 15-58 27-29 14-28 13-41 19-15 6h-6l-7-8-1-2v-9l5-10 8-6 24-13 50-23 19-10 31-14 18-8 46-22 45-22 20-9 23-11 33-15 19-9 25-11 30-13 53-25 29-12z" fill="#5953BF"/>
<path transform="translate(717,194)" d="m0 0 6 1 21 10 24 10 21 9 25 11 28 13 15 7 24 11 28 13 16 8 26 12 22 9 16 8 35 16 19 8 17 9 33 15 30 14 41 20 24 11 17 10-1 3-27 15-3 3-5-1-29-14-26-12-30-14-26-13-16-7-56-26-29-14-20-9-31-15-28-12-51-24-23-10-14-7-23-10-34-14-21-10-17-11-2-1v-3l10-6 10-9z" fill="#2BC0FC"/>
<path transform="translate(798,156)" d="m0 0 9 2 20 9 16 8 24 11 28 13 16 8 29 14 23 10 21 10 23 11 24 11 27 13 19 9 27 12 29 14 14 7 20 9 35 17 16 8 23 10 21 9 21 11 2 3-20 9-16 8-11-3-26-11-21-10-48-24-33-15-28-14-20-9-22-11-54-25-28-13-32-15-26-12-16-8-35-16-60-28-13-8-5-4 1-3 7-3 11-7z" fill="#2BC1FD"/>
<path transform="translate(1383,1058)" d="m0 0h4l2 6 1 10v11l-2 3h-2l-1 3-16 8-28 13-36 16-30 14-36 17-36 16-19 9-33 15-34 16-31 15-28 13-34 16-30 14-33 16-31 15-21 9-6 2-5-1-7-6-1-2v-10l4-8 9-9 19-10 21-10 26-12 34-17 28-12 31-14 16-8 29-14 20-9 27-13 45-20 16-8 21-9 34-16 29-13 39-18 20-8z" fill="#516FE7"/>
<path transform="translate(465,879)" d="m0 0h11l16 4 11 6 10 8 7 7 12 16 8 16 4 12 2 12v20l-4 14-7 14-11 12-10 7-15 6-8 2h-12l-10-2-21-8-11-6-12-11-7-8-8-15-6-17-2-9v-20l4-18 5-12 6-9 7-7 10-6 14-5z" fill="#0FA4FA"/>
<path transform="translate(640,677)" d="m0 0h20l17 5 15 8 10 8 9 8 7 10 6 12 5 16 1 5v26l-4 16-5 9-9 10-7 6-13 6-7 2h-22l-13-4-19-10-13-10-8-8-10-16-7-19-2-10v-16l4-16 8-16 9-9 13-8z" fill="#F9F9FB"/>
<path transform="translate(288,843)" d="m0 0 17 1 12 4 13 8 12 11 7 10 8 14 5 11 3 13 1 19-2 13-5 12-7 11-8 8-12 7-14 4-6 1h-11l-15-3-10-4-17-10-13-13-9-14-8-20-2-7v-16l4-16 8-16 9-11 8-7 12-6 10-3z" fill="#0EA5FB"/>
<path transform="translate(642,948)" d="m0 0h9l18 3 17 7 14 10 8 7 11 17 8 17 4 15v14l-3 14-5 12-9 13-7 6-11 5-18 4h-16l-22-6-13-7-9-7-7-7-7-11-8-17-4-13-1-7v-19l4-15 7-13 11-12 16-8z" fill="#0EA5FB"/>
<path transform="translate(751,287)" d="m0 0 8 1 21 7 29 13 28 13 19 8 23 10 31 15 36 16 29 14 24 11 20 9 21 10 16 7 23 11 14 6 14 8 8 7-1 5-11 8-13 8-9-3-24-10-30-14-40-17-27-13-24-11-25-11-35-17-28-13-30-13-28-13-33-15-10-6-4-3v-7l5-14z" fill="#2BC2FD"/>
<path transform="translate(723,354)" d="m0 0 10 1 22 8 27 11 33 15 24 11 37 16 35 16 25 12 40 20 31 14 18 8 8 7v5l-10 10-10 7-7 1-16-6-41-19-55-26-30-13-20-9-31-14-16-8-24-10-29-13-14-7-11-7-7-8 1-6 7-12z" fill="#727CEF"/>
<path transform="translate(277,1030)" d="m0 0h22l12 4 15 8 4 3v2l4 2 9 12 3 8v9l-1 1h-10l-23-11-11-4h-15l-6 4-3 5v5l11 8 14 7 25 5 11 2 8 6 9 15 4 10v16l-4 11-6 8-7 6-10 5-14 4-12 2h-16l-19-4-10-4-7-8-3-8v-8l47-1 16-3 8-4 2-3-1-5-10-6-20-11-25-11-10-6-11-9-10-9-4-6v-12l4-11 9-10 8-6 11-5z" fill="#F9F9FB"/>
<path transform="translate(639,250)" d="m0 0h26l14 4 10 5 12 9 3 3v2h2l6 12 2 8v13l-3 10-7 13-9 12-11 8-10 4-10 2h-16l-16-4-11-5-10-6-10-9-9-14-3-9v-16l5-13 10-12 11-8 11-5z" fill="#F7F8FA"/>
<path transform="translate(280,601)" d="m0 0h17l13 3 11 6 10 9 8 9 6 12 7 24 5 16 1 6v13l-3 11-5 10-7 9-8 7-12 5-16 4h-26l-27-8-9-4-2-2v-9l5-7 4-2h8l5 1h11l4-2h8l3 1h12l8-4 5-4 6-9 3-8v-12l-3-12-7-14-8-8-10-4h-14l-11 4-6 7-3 9 1 9 6 12 8 11 3 6-2 4-12-1-18-9-7-6-7-10-4-10v-20l4-13 6-9 4-5 10-8 11-5z" fill="#F8F9FB"/>
<path transform="translate(661,1183)" d="m0 0h26l12 4 11 6 6 5 3 5-1 8-5 6-2 1-11-1-18-3-12 1-7 3-3 6 15 10 13 8 17 12 10 9 8 8 6 11 2 9v12l-3 12-6 11-9 10-13 6-14 3-10 1h-19l-12-2-13-5-7-6-3-6v-12l2-4h9l21 3h24l13-4 5-5 1-3v-9l-4-7-7-6-16-8-11-7-16-12-14-13-8-11-2-5v-14l4-8 9-8 14-7z" fill="#F9F9FB"/>
<path transform="translate(431,1080)" d="m0 0h19l14 4 17 9 10 9 2 3v11l-3 4h-7l-26-6h-14l-6 2-1 7 7 6 26 14 11 8 2 1v2l4 2 11 11 5 8 2 6v14l-4 11-7 9-8 7-16 8-19 7-20 6-5 1h-10l-9-4-6-7-1-5v-7l2-5 9-3 53-14 8-4 1-1v-7l-7-7-17-11-18-10-10-8-8-8-10-15-4-9-1-4v-8l4-8 9-10 12-7z" fill="#F9F9FB"/>
<path transform="translate(1384,556)" d="m0 0 4 4 3 10 1 9-2 7-9 8-24 13-18 8-27 11-26 12-23 10-30 13-25 12-26 11-16 7-34 16-35 15h-5l-2-4 8-5 22-11v-3l17-8 4-2 1-3 12-9 11-9 5-4 10-4 1-3 4-2-1-5 3-3 1-2h2l-1-4 24-11 42-19 27-11 40-18 57-24z" fill="#7674EF"/>
<path transform="translate(458,579)" d="m0 0 5 1 22 10 2 2-1 7-9 16-8 18-7 14-8 18-10 19-9 20-13 27-8 16-8 18-10 19-6 14-10 16-3 3h-8l-16-4-4-4 3-10 8-16 16-33 15-29 10-24 13-28 13-25 7-14 7-15 14-31z" fill="#F8F8FA"/>
<path transform="translate(535,813)" d="m0 0 6 1 24 10 26 12 14 6 16 7 19 9 24 10 24 11 36 15 8 6 4 7 1 5v7l-4 9-5 5-9-1-57-24-18-8-29-13-19-9-20-9-37-18-7-6-4-10 1-11 5-10z" fill="#2BC1FD"/>
<path transform="translate(651,470)" d="m0 0 5 1 22 10 12 5 16 8 29 14 20 9 39 19 24 12 35 15 19 10 2 1-2 4-10 7-16 9-2 2-7-1-16-7-27-13-27-12-21-9-52-25-28-13-10-5v-3l5-2 10 1 5-1-1-4 1-3-4-9v-4l-5-2-12-8v-4z" fill="#0EA6FB"/>
<path transform="translate(240,484)" d="m0 0h7l12 5 34 16 26 11 28 13 24 11 29 12 16 8 4 5 1 3v11l-4 8-9 6-7 1-16-6-26-11-63-30-51-24-9-7-6-8-1-3v-8l6-9z" fill="#2BC1FD"/>
<path transform="translate(537,616)" d="m0 0 5 1 19 8 5 5-8 16-10 23-21 42-11 25-8 16-12 25-15 30-7 11-5 1-14-3-9-4v-6l12-26 13-28 12-25 13-30 24-48 12-26z" fill="#F8F9FB"/>
<path transform="translate(589,1106)" d="m0 0 8 1 21 7 1 3-5 15-17 33-9 17-9 21-8 15-10 23-6 12-9 19-6 9-7 14-3 3-8-1-18-7-1-1 1-7 13-26 7-16 27-54 9-20 11-26 8-16 9-17z" fill="#F9F9FB"/>
<path transform="translate(1384,709)" d="m0 0 4 2 4 13v9l-3 6-7 6-21 10-21 9-25 11-29 13-21 9-26 12-14 7-5-2-8-3 1-4 3-5 1-11 3-2 1-7h4l2-5 8-3 10-6 2-2 21-9 31-14 28-12 20-9 35-12z" fill="#5953BF"/>
<path transform="translate(1382,984)" d="m0 0h4l4 10 1 11-2 8-5 6-14 7-25 11-25 12-26 12-38 17-42 19-20 9h-6l-1-4 2-5h2v-2l15-11 6-5 9-7h2v-2l9-7 5-1 1-3 7-3 2 1 1-6 9-6 3-5v-3l33-15 21-9 17-8 37-15z" fill="#665EDB"/>
<path transform="translate(770,448)" d="m0 0 9 3 19 10 24 11 27 12 30 14 27 13 33 15 14 8 1 4-9 7-11 8-7 6-6 1-28-16-26-12-19-8-46-22-35-17-18-8-1-3 4-1 15 4 13 2 9-2 3-3 5-1-2-5-11-7-3-4-1-2-5-2z" fill="#0EA5FB"/>
<path transform="translate(1213,848)" d="m0 0 8 1 16 12 14 11 15 11 13 10 5 4 2 3-1 9-8 17-20 36-12 22-10 19-5 12-5 5-12 3h-9l-2-3v-11l7-19 23-47 7-16 9-15-1-4-9-8-21-14-16-10-5-5 1-7 7-9z" fill="#F9F9FB"/>
<path transform="translate(288,843)" d="m0 0 17 1 12 4 13 8 9 11 2 1 5 9 7 10-2 9-6 5-9-1-7 3-4-1-3-3-6-3-14-9-8-3h-8l-6 3-4 4h-4l-2 5-4 9-1 5-1 16-4 4-1 3h-2l-1 4-5 1v2l-4 1-2 11h-2l-5-10-2-1v-2h-2l-6-16-1-4v-16l4-16 8-16 9-11 8-7 12-6 10-3z" fill="#2BC2FD"/>
<path transform="translate(1089,291)" d="m0 0 9 3 35 17 14 7 20 9 35 17 16 8 23 10 21 9 21 11 2 3-20 9-16 8-11-3-26-11-21-10-48-24-33-15-28-14-14-6v-2h9l11 4 9 2 14 2 3-1v-2l3-3v-7l-5-4-7-4-4-4-12-6z" fill="#0FA4FB"/>
<path transform="translate(1012,944)" d="m0 0h8l11 9 10 8 14 11 19 19 4 6v9l-6 16-15 30-15 29-7 15-5 12-8 4-14 3h-7l-2-2v-8l7-17 7-15 12-25 10-21 6-11 4-8-2-4-13-11-19-14-10-8-6-8 1-7 5-6 8-5z" fill="#F9F9FB"/>
<path transform="translate(465,879)" d="m0 0h11l16 4 11 6 10 8 7 7 12 16 3 5-1 4 1 10-2 2-7 1-2 1-8-3-3-3-5-1-6 1-12-10-14-7h-11l-12 5-8 6-4 4-1 3h-2l-2 11-7 4h-2l-1 4-3 3-9 2-3 12-3 1-4-7-2-9v-20l4-18 5-12 6-9 7-7 10-6 14-5z" fill="#2BC1FD"/>
<path transform="translate(1120,892)" d="m0 0h5l11 13 7 9 16 21 7 9 10 13v9l-6 15-10 18-21 41-9 19-6 5-18 5-7-1-1-1v-7l13-33 11-21 8-16 12-22-1-5-10-11-13-18-14-20-5-8 1-5 10-5z" fill="#F9F9FB"/>
<path transform="translate(942,370)" d="m0 0 6 1 25 12 26 12 20 9 21 10 16 7 23 11 14 6 14 8 8 7-1 5-11 8-13 8-9-3-24-10-30-14-40-17-27-13-24-11-25-11 1-3 7 3 14 4 13 3 9-2 10-4 4-6-5-3-8-5v-2l-5-1-9-8z" fill="#0EA5FB"/>
<path transform="translate(642,948)" d="m0 0h9l18 3 17 7 11 8 7 8 5 8 1 4-7 9-4 2h-7l-1 10h-2l-5-5-6-7-10-5-8-2h-13l-10 4-7 8-3 6v25l-5-1-2-8h-2l3 7v13l1 6-1 3-4 3h-3l-1 4h-2l1 3-5-2-9-17-6-18-1-7v-19l4-15 7-13 11-12 16-8z" fill="#2BC1FD"/>
<path transform="translate(1327,801)" d="m0 0 4 1 9 10 9 11 17 17 7 8 10 11 4 7v10l-5 13-13 23-10 18-8 15-6 15-7 6-16 7-8 1-4-5 6-17 18-38 10-18 10-19-2-5-7-9-12-11-15-15-2-1v-2h-2l-8-10-2-4 1-5 5-5 9-6z" fill="#F9F9FB"/>
<path transform="translate(907,996)" d="m0 0 7 1 10 9 11 9 18 14 10 9 6 8 2 4v13l-4 10-7 13-10 17-10 14-7 11-9 16-7 7-7 3h-6l-8-5-5-6-1-3v-8l5-5 12-9 6-7 10-17 18-30-1-5-10-9-16-11-16-12-9-8-1-5 4-7 10-9z" fill="#F8F8FA"/>
<path transform="translate(1046,1293)" d="m0 0 8 1 3 2-1 3-8 7h-2v2l-7 4-1 7-3 2 1 3 3 1-38 19-26 12-30 14-33 15-8 3h-6l-7-8-1-2v-9l5-10 8-6 24-13 50-23 19-10 29-13 5 1 3 1z" fill="#665EDB"/>
<path transform="translate(1383,1058)" d="m0 0h4l2 6 1 10v11l-2 3h-2l-1 3-16 8-28 13-36 16-30 14-26 12-6 1h-8l-4-2 1-4h2l1-3h2l1-4 5-2 2-7 3-3h2l-2-9 1-4 32-15 20-9 37-17 20-8z" fill="#5953BF"/>
<path transform="translate(1053,347)" d="m0 0 5 1 35 16 30 14 41 20 24 11 17 10-1 3-27 15-3 3-5-1-29-14-26-12-30-14-26-13-16-7-24-11v-1l13 1 4 2 13 2h11l9 1 1-8-5-6v-2l-4-2-7-6z" fill="#0FA4FB"/>
<path transform="translate(470,311)" d="m0 0 6 1 14 6 19 8 16 8 24 11 34 15 3 6 6 3 5 4 4 3-2 1 4 3 1 6-2 4-4 1h-16l-5 1-9-3-4-1v2l-6-2-24-11-30-14-17-9-23-11-13-7-5-3 1-3 11-7 10-9z" fill="#42D6FD"/>
<path transform="translate(1089,611)" d="m0 0 4 1-9 6-9 4h-2l-2 6-2 2-6 2-5 5-6 4-3 1-4 4-9 7h-2l-2 4-12 7-6 5-13 5-8 7-10 6-4 6-3 4v2l5-1v3l-30 13-19 10-27 12h-7l-7-5-2-3v-7l4-10 5-7 10-7 13-8 17-8 43-19 16-8 32-15 18-8 38-18z" fill="#8394F2"/>
<path transform="translate(1382,631)" d="m0 0 4 1 6 7 1 3v13l-4 10-9 6-17 9-35 15-29 14-35 15-7-1-4-2 1-4 5-4 9-9 7-4 5-5 6-4 1-4h2l2-5 1-2-4-1v-2l-2-1 2-2 4-3 25-11 29-13 26-11z" fill="#665EDC"/>
<path transform="translate(798,156)" d="m0 0 9 2 20 9 16 8 24 11 28 13 16 8 2 2-1 5 3 5 9 9v1h-7l-3 1h-5l-1 1h-17l-11-4-9-3-3 1-38-18-26-12-19-9-10-7-4-3 1-3 7-3 11-7z" fill="#42D5FD"/>
<path transform="translate(653,712)" d="m0 0 13 2 9 4 9 7 7 10 5 12 1 5v18l-3 9-7 8-5 3-5 2-16-1-16-7-7-5-7-9-5-10-2-7v-14l4-12 6-8 7-5z" fill="#301538"/>
<path transform="translate(1061,1148)" d="m0 0 3 1 2 2 7-2 8 1-2 2 2 2h2l-1 3-91 42-37 18-23 11-26 12-8 1-7-7-2-4 1-10 3-6 7-8 21-12 16-8 23-11 15-7 4 1-3 3v6l-9 7 1 3-4 3 7 2 3-3 9-1 5-1 1-2 4-3 5-1h3l5-1 2-4h2l1-2 12-6 4-3 11-6 8-1 2-4z" fill="#727CEF"/>
<path transform="translate(465,919)" d="m0 0h11l14 7 9 8 7 14 1 6v22l-4 10-6 7-9 5-4 1h-14l-10-5-10-11-8-12-3-8v-19l3-10 6-7 14-7z" fill="#301538"/>
<path transform="translate(1032,866)" d="m0 0 3 1-4 4-4 1v6l-5 5h-2l-2 4-3 3h-2v2l-8 7-5 2v2l-13 8-11 9-3 1-1 6 4 2v3l-32 15-16 8-17 9-9 3-6-1-6-7-2-4v-7l4-9 7-8 11-7 23-12 61-28 35-17z" fill="#727CEF"/>
<path transform="translate(1047,707)" d="m0 0 4 1-11 7-5 1-2 5-3 4-11 3-1 5-8 10-14 12-10 7-11 7-17 10-6 4-1 5 4-1v2l-25 13-16 7-10 3h-6l-7-7-2-3 1-10 5-10 9-8 16-9 20-9 27-12 26-13 20-9 18-8z" fill="#8394F2"/>
<path transform="translate(1041,785)" d="m0 0h3v2l-8 7-3 2h-3v2l-10 10-6 2-1 6-6 3h-2l-2 4-5 4-10 6-5 1-1 4-6 4-4 3h-2l-1 3-4 2-7 12-1 4-31 14-19 8-9 1-8-7-1-3v-11l5-10 9-7 26-13 19-10 34-16 18-8 23-10z" fill="#8394F2"/>
<path transform="translate(1384,556)" d="m0 0 4 4 3 10 1 9-2 7-9 8-24 13-18 8-27 11-26 12-10 4h-4l1-4 5-9 4-4 3-5h2l2-5 5-7-4-4-1-5 4-4 36-16 41-17z" fill="#665FDC"/>
<path transform="translate(1080,1195)" d="m0 0 2 1-1 2-5 3h-3l1 4-1 1 2 1-1 4-11 9-8 5-8 4-7 6-6 2-11 5-23 11-14 5-10 3-21 14-16 12-11 6-3 4-2 2-5 3-3 2-7-1-4 5-2-1v2l8 2-1 2-6 2-5-1-7-6-1-2v-10l4-8 9-9 19-10 21-10 26-12 34-17 28-12 31-14 16-8z" fill="#727CEF"/>
<path transform="translate(647,987)" d="m0 0h13l13 4 8 6 8 11 5 11 2 8v8l-3 9-5 6-8 5-6 2h-12l-10-4-11-7-7-8-5-10-2-8v-15l4-8 8-7z" fill="#301538"/>
<path transform="translate(1193,791)" d="m0 0h2l1 3-7 4h-2v2l-8 2-2 1-1 3-6 2-2 1-1 4h-2l-2 6h-2v2l-9 6-7 6h-2v2l-7 4-10 3-15 7-11 3-15 6-11 4-6 3-7 4-18 14-5 5-5 4-5 5h-2v2l-4 1-1 3-4 3h-2v2h-2v2h6l-3 3-24 12-14 6h-2l-1-2-4-2 2-6 10-8 10-7 5-3h2v-2l7-5h2l2-4h2v-2l6-5 6-7h2v-6l6-2 1-5 19-9 16-8 29-13 24-11 39-19z" fill="#6B6BE4"/>
<path transform="translate(286,883)" d="m0 0h8l10 4 12 8 8 7 4 8 1 7v11l-3 12-4 7-4 5-7 4h-17l-9-5-10-10-6-10-2-7v-17l5-12 7-8 4-3z" fill="#301538"/>
<path transform="translate(658,866)" d="m0 0 6 2 24 11 36 15 8 6 4 7 1 5v7l-4 9-5 5-9-1-57-24-45-20v-2l11 1 10 3 7-1 7-2 4-9 1-9z" fill="#0FA4FA"/>
<path transform="translate(717,194)" d="m0 0 6 1 21 10 24 10 14 7 2 5 11 7 6 7 11 6 3 5-7 1-11-2-2 2-7 1-12-4v2h-3v2l-6-2-34-14-21-10-17-11-2-1v-3l10-6 10-9z" fill="#42D5FD"/>
<path transform="translate(1378,481)" d="m0 0h5l6 9 3 8-1 9-6 8-23 12-28 12-48 22h-2l1-5 7-2 3-6h2l2-5 5-6 4-4 1-2h2v-10h-5l-2-2v-6l52-22 16-7z" fill="#665EDB"/>
<path transform="translate(391,350)" d="m0 0 2 1-3 4 6 2 14 9 12 6 10 3 5 5 19 9 7 2 5 5 5 8 3 2-1 2h-3l3 3-1 5v2l6 5 2 3v4l-6-2-29-14-28-12-26-12-14-8-9-7-4-3 2-4 11-7z" fill="#42D6FD"/>
<path transform="translate(934,444)" d="m0 0 6 2 36 18 31 14 18 8 8 7v5l-10 10-10 7-7 1-16-6-30-14 2-5h-2v-2l-5-2-9-4v-2l-5-2-1-2 3-1-2-4 4-3-1-2 3-2v-3h2v-3h-2l-3-4-5-5-8-4z" fill="#6B6BE3"/>
<path transform="translate(1301,514)" d="m0 0h3l2 6 5 1 1 5-1 5h-2l-2 5-6 5-4 7-2 2-2 1-1 4-7 1-1 6-26 11-24 11-14 6-5-1-1-3 11-6h2v-3l-2-1 2-3h2l2-4 4-5 2-4-2-2-1-4-13 1v-2l6-3 5-2 1-4 20-9 17-8z" fill="#7674F0"/>
<path transform="translate(1257,1038)" d="m0 0h4l-2 5-4 5-5 3h-2l-1 6-5 1-4 2-1 2-8 4-4 4h-2v2l-6 4-5 4-11 9-8 6h-2l-1 4h-2l1 6h3v2l-33 15-36 16-17 8-3-1v-4l3-3 2-4 9-6 5-3 7-4 8-3 12-7h2v-2l4-1v-2l5-5v-2h2v-3l4-1v-2l3-3h2l2-4 1-1v-7l3-3 4-3 26-12 24-10 24-11z" fill="#6B6BE3"/>
<path transform="translate(1285,674)" d="m0 0 4 1-1 4 4 1-2 5-3 4-1 3-9 6-4 4-6 4-13 13v2l6 2h2v2l-25 11-23 11-33 15-18 9-5-1 1-6 4-1 2-4 4-3 6-3 14-8 20-10 9-7 4-6h2l-1-3 6-9-4-3v-3h2l-1-3 30-14z" fill="#6B6BE4"/>
<path transform="translate(1246,1118)" d="m0 0h4v4l-1 2 1 6-5 5-2 5-5 3-1 3-5 4v3l3 1h8l5-1-3 3-19 9-21 9-19 9h-2v-5l4-4-5-5h-2v-5l-4 2-3-1-1-4 1-3-4 1h-2l-9 4-14 4-2 1-2-2 58-26 16-8 21-9z" fill="#665EDB"/>
<path transform="translate(1382,984)" d="m0 0h4l4 10 1 11-2 8-5 6-14 7-25 11-25 12-9 3-2-1v-2h-2v-3l-3-1 2-4 6-5h2v-2h2l-2-5 3-1h3l4-4h2v-3l10-7-3-3 1-2h9l7-5 4-5 5-2-1-3z" fill="#5953BF"/>
<path transform="translate(646,279)" d="m0 0h12l11 4 9 8 4 9-1 10-5 8-9 5-7 2h-13l-10-3-8-6-4-5-2-4v-11l6-9 10-6z" fill="#301538"/>
<path transform="translate(1032,866)" d="m0 0 3 1-4 4-4 1v6l-5 5h-2l-2 4-3 3h-2v2l-8 7-5 2v2l-13 8-11 9-3 1-1 6 4 2v3l-32 15-4 1-6-3 3-6 7-10 5-8h2l3-9 5-5 5-3 3-3h3l2-4 1-3 35-17z" fill="#7674F0"/>
<path transform="translate(1140,352)" d="m0 0 6 1 19 9 7 3 7 2 10 6 3 2 14 3h12l3 1v-2l9-3 2-2 2-8h-2l-1-3 1-2 5 1 25 11 21 11 2 3-20 9-16 8-11-3-26-11-21-10-48-24z" fill="#0B93F6"/>
<path transform="translate(367,540)" d="m0 0 7 1 26 11 16 8 4 5 1 3v11l-4 8-9 6-7 1-16-6-26-11-9-4 4-2 22 4 8-8 1-7-6-9v-2l-5-2-7-5z" fill="#11A2F9"/>
<path transform="translate(1032,411)" d="m0 0 6 2 18 8 23 11 14 6 14 8 8 7-1 5-11 8-13 8-9-3-24-10-30-14-38-16v-1l9 1 12 5 5 1v2l17 4 15 6 13 5 10-1 5-4h6l-3-6-1-6-6-4-9-5-7-4-9-3-9-6-5-2z" fill="#0D91F5"/>
<path transform="translate(1223,702)" d="m0 0h4v2h-2v3l5 2-5 9-1 4h-2l-2 5-8 7-7 4-18 9-12 7-9 5h-4l-8 1-1 1-5 2-8 2 28-28 10-7 14-8 4-2 2-4 7-3v-3z" fill="#7674F0"/>
<path transform="translate(1288,597)" d="m0 0 4 1-2 2 1 4 4 4-8 12h-2l-2 5-3 4h-2l-2 6-3 4v2l3 1-8 4-26 11-4 1-5-3 3-5h2l1-4h2l2-4 8-6 3-5 3-8 2-1-3-3-1-4 4-2-1-3 26-11z" fill="#6B6BE4"/>
<path transform="translate(1301,514)" d="m0 0h3l2 6 5 1 1 5-1 5h-2l-2 5-6 5-4 7-2 2-2 1-1 4-7 1-1 6-26 11-8 4h-3l1-4 7-4h3v-4l2-1 2-5 4-6 4-4 4-10 2-7-4-2 1-4z" fill="#6B6BE4"/>
<path transform="translate(926,521)" d="m0 0 9 3 17 9 2 2-1 4-11 8-9 7-8 6-6-1-22-13-30-14-17-7v-1l8 1 13 5 7 5 6 1h14l17-2 4-2v-5l6-2z" fill="#0B93F6"/>
<path transform="translate(1384,556)" d="m0 0 4 4 3 10 1 9-2 7-9 8-24 13-6 2-1-3h2l1-2 3-2v-3l-2-2 4-2 1-5 3-1v-7l-5-3-17-1-4-2 34-14z" fill="#5953BF"/>
<path transform="translate(544,953)" d="m0 0h1l1 7v20l-4 14-7 14-11 12-10 7-15 6-8 2h-12l-10-2-14-5 4-2 3-1h11l10 1 15-6 13-8 13-11 7-5 4-8h2l2-4 4-12z" fill="#0D91F5"/>
<path transform="translate(1382,631)" d="m0 0 4 1 6 7 1 3v13l-4 10-9 6-7 1-7 3v-2l-7 4-1 2h-8l-3-2 3-5 11-7 3-1 2-7v-4l1-3-7-4v-3l-2-1 18-8z" fill="#5953BF"/>
<path transform="translate(1080,1195)" d="m0 0 2 1-1 2-5 3h-3l1 4-1 1 2 1-1 4-11 9-8 5-8 4-7 6-6 2-11 5-23 11-14 5-10 3-12 8-2-1 7-6h2l2-5 5-3 12-5 18-4 8-4 9-3 8-9 2-5-1-4 1-2-2-1 29-13 16-8z" fill="#6B6BE3"/>
<path transform="translate(241,485)" d="m0 0 4 2 6 5 7 5 3 1 4 5v5 3l-1 9-6 5h-9l-11-7-7-8-2-5v-8l5-5z" fill="#42D7FD"/>
<path transform="translate(1142,388)" d="m0 0 6 2 29 14 16 8 12 7-1 3-27 15-3 3-5-1-29-14-22-10 4-1 12 3 2 1 9 1 10 6 10 2h13l2-6h4l-2-1v-4l-5-2-8-7-4-4-8-4-11-6-4-4z" fill="#128DF1"/>
<path transform="translate(751,287)" d="m0 0 8 1 21 7 11 5-4 3h-9l-11-1-5 3-3 1 2 9 4 6 6 2 3 8-9-3-17-9-5-4v-7l5-14z" fill="#11A3FA"/>
<path transform="translate(931,913)" d="m0 0 4 1-3 2-2 6-11 8-6 7-6 8-3 8 1 7 5 2-4 4-8 1-7-6-3-6v-7l4-9 7-8 11-7z" fill="#8192F0"/>
<path transform="translate(362,906)" d="m0 0 2 4 2 17-1 16-4 12-5 9-7 9-8 7-12 6-17 4h-11l-15-3-8-3 4-3 7-1 10 1 25-2 9-4 2-3 7-2 9-12h2l2-4 4-5 2-6 2-16v-11l-1-2z" fill="#168BF0"/>
<path transform="translate(1378,481)" d="m0 0h5l6 9 3 8-1 9-3 3-6 4-11 1-4 4-5 2v-3h2l2-4 5-6 2-4h3l-3-9h-7l-6 2-17 4-7 1 5-5 22-9z" fill="#5953BF"/>
<path transform="translate(723 1e3)" d="m0 0 2 2 5 15 1 5v14l-3 14-5 12-9 13-7 6-11 5-10 2 1-2 5-2 7-10 4-7 9-10 4-5h2v-2l2-1 7-24-2-8-2-12z" fill="#118EF2"/>
<path transform="translate(227,349)" d="m0 0 2 1-16 8-34 16-12 7-8 7-4 8-2 10-1 27v320h-1l-1-115v-222l1-17 4-11 7-7 15-9 19-9 29-13z" fill="#8389CA"/>
<path transform="translate(952,1193)" d="m0 0h5l-3 2-7 2 1 2-12 6 1 2-12 5-6 1-5 5h-6l-6 3h-2l2-5 4-5 2-4 4 1 1-5-2-1v-3l7-4 3 1v3l3-1 4 1h8l7-3z" fill="#7674F0"/>
<path transform="translate(1023,490)" d="m0 0h7l3 3v5l-10 10-10 7-7 1-9-3 2-1v-3l3-2h3v-2l6-5 1-3h2v-2h3v-2z" fill="#665EDB"/>
<path transform="translate(898,1358)" d="m0 0 1 2 11-1 3-1 1 5-2 1-3 6h-2l-1 5-2 8h-2v2h-7l-5-7v-9l3-7z" fill="#6B6AE3"/>
<path transform="translate(791,571)" d="m0 0h7l16 4 14 3 4 4h8l2 1-1 4-7 2-1 3 3 1-2 1-25-12-20-9z" fill="#0C92F6"/>
<path transform="translate(1072,1122)" d="m0 0 4 1-10 8h-2v2l-12 5-8 4-1 2h-2v2l-6 4-8 3-5-1-1-2 2-5 34-16z" fill="#7079EC"/>
<path transform="translate(305,1095)" d="m0 0 12 1 11 2 10 2 8 6 8 13-1 2-4-4v-2l-4-2-8-3-15-4-15-9z" fill="#A3B3CD"/>
<path transform="translate(957,1271)" d="m0 0 2 1-13 10-10 7-8 4-3 4-2 2-5 3-3 2-7-1-4 5-3-2-1-4 3-1 1-3 12-6 18-6 13-8z" fill="#6C6CE5"/>
<path transform="translate(1139,1167)" d="m0 0 4 1-4 4-2 3h-4v2l-7 3-9 3-5 2-8 6h-6l-2 2-2 3h-10v-3l32-15z" fill="#6F78EB"/>
<path transform="translate(1023,1239)" d="m0 0v3l-23 11-14 5-10 3-12 8-2-1 7-6h2l2-5 5-3 12-5 18-4 8-4z" fill="#6C6CE5"/>
<path transform="translate(740,511)" d="m0 0 9 3 47 23 22 11 7 3-2 4-7-2v-2l-5-2-15-9-13-6-7-3-16-8-7-4-8-3-5-3z" fill="#1A86EC"/>
<path transform="translate(272,683)" d="m0 0 5 5 4 8-2 4-12-1-18-9-5-5 5 2 6 2h12l5-2z" fill="#9EABCD"/>
<path transform="translate(828,553)" d="m0 0 13 5 20 9 13 7-2 4h-3l-2-6-10-2-7-1-2-1-1-3-6-1-1 4-5-1v-2h-2l-4-7z" fill="#0F90F4"/>
<path transform="translate(227,349)" d="m0 0 2 1-16 8-34 16-12 7-8 7-4 8-2 10-1 27h-1v-34l4-11 7-7 15-9 19-9 29-13z" fill="#95A0CC"/>
<path transform="translate(1151,613)" d="m0 0 5 1 1 3-2 2-4 3-14 6v-2l-5-1v-2l-4-1 10-5 9-1z" fill="#7573EE"/>
<path transform="translate(930,1221)" d="m0 0 3 1v3l2 1-27 13h-5l-2-4 8-2 1-3 6-1 8-6z" fill="#7372EC"/>
<path transform="translate(901,702)" d="m0 0 3 1-4 6-4 16 2 8-5-1-4-4v-7l4-10 5-7z" fill="#4CC5F8"/>
<path transform="translate(1032,866)" d="m0 0 3 1-4 4-9 3-3 2-8 4-4 1-2-1v2l-11 7-7 2-2-1v2l-5 2h-5l4-3 25-12z" fill="#6F77E9"/>
<path transform="translate(1243,768)" d="m0 0 3 1-10 5-4 1-1 2h-4l-2 6-4-1v7l-4 2-5-2 1-2v-1l-2-1-2 3h-2l-2 2h-4v-3l33-15z" fill="#6968DF"/>
<path transform="translate(751,287)" d="m0 0 8 1 7 2v1h-8l-6 5-5 12v6l8 8-5-2-7-5v-7l5-14z" fill="#5953BF"/>
<path transform="translate(455,325)" d="m0 0 2 1v3l2 2 2 5 9 7v2l-6-2-13-7-5-3 1-3z" fill="#31B4F7"/>
<path transform="translate(927,1267)" d="m0 0h4v2l-15 9-2 3h-7l-2-1v2l-5 3-5 6-2-1 7-8 5-4 17-9z" fill="#706EE7"/>
<path transform="translate(1174,1151)" d="m0 0 4 1h-2v5l-6 2h-2l-9 4-14 4-2 1-2-2 29-13z" fill="#6867DF"/>
<path transform="translate(1224,625)" d="m0 0 4 1-4 3h-5v2l-9 4-13 7h3v2l-6 2-3-1v-2l-2-2 24-11z" fill="#7078EB"/>
<path transform="translate(1389,583)" d="m0 0 1 3-9 8-13 7h-3l2-6 10-5 5-1 4-4z" fill="#655DD9"/>
<path transform="translate(305,1095)" d="m0 0 12 1 11 2 10 2 8 6-1 2-5-4-2-1-15-1-10-3-8-3z" fill="#5F5BC9"/>
<path transform="translate(1376,670)" d="m0 0h2l-1 3-23 11-5 1 1-4 6-3 2 1 1-3 5-3 3 1z" fill="#625AD2"/>
<path transform="translate(908,1302)" d="m0 0 8 3 6 1-3 3-9 3-8-3v-2l3-1z" fill="#576DE5"/>
<path transform="translate(1020,1327)" d="m0 0 4 3-4 2 1 2-20 10-3-1v-3l12-6 7-3 3-1z" fill="#5953BF"/>
<path transform="translate(1223,581)" d="m0 0h13v2l-16 7-5-1-1-3z" fill="#7573EE"/>
<path transform="translate(1014,1181)" d="m0 0h4v2l3 1-4 3-13 6h-2l2-6 4-2 1-3z" fill="#7171EA"/>
<path transform="translate(800,540)" d="m0 0 6 2 19 9-2 4-7-2v-2l-5-2-11-7z" fill="#128DF1"/>
<path transform="translate(719,360)" d="m0 0 1 4-3 11-1 3h2v3l3 1 1 3-4-2-6-7 1-6z" fill="#5F66DC"/>
<path transform="translate(542,988)" d="m0 0 1 4-8 16-11 12-10 7-5 1 5-4 8-6 5-4 9-12z" fill="#5758C7"/>
<path transform="translate(754,555)" d="m0 0 8 1 5 3 7 3 5 4-1 2-23-10-3-2z" fill="#1789EE"/>
<path transform="translate(1e3 880)" d="m0 0 2 1-5 5-5 3-7 2-2-1v2l-5 2h-5l4-3z" fill="#6F77EA"/>
<path transform="translate(1382,631)" d="m0 0 4 1 6 7v6l-5-1-2-4-2-1z" fill="#655EDA"/>
<path transform="translate(1243,768)" d="m0 0 3 1-10 5-4 1-1 2h-4l-2 6-4-1v2l-3-1 1-4z" fill="#6766DC"/>
<path transform="translate(869,414)" d="m0 0 5 1 15 7-4 2-5-1-13-6z" fill="#6867DE"/>
<path transform="translate(227,349)" d="m0 0 2 1-16 8-25 12h-5l4-3 20-9z" fill="#8B94CF"/>
<path transform="translate(341,1060)" d="m0 0 3 3 2 6v9l-1 1h-10l-3-2 9-1 1-4v-8z" fill="#98A4CD"/>
<path transform="translate(332,859)" d="m0 0 4 2 10 11 8 13v2l-3-1-10-15v-3l-4-2z" fill="#2F84E6"/>
<path transform="translate(850,524)" d="m0 0 8 1 13 5 7 5 3 1-1 2-20-9-10-4z" fill="#1988EC"/>
<path transform="translate(280,712)" d="m0 0h8l3 1 11 1v1l-17 1h-20v-1l11-1z" fill="#848BCD"/>
<path transform="translate(851,584)" d="m0 0h11l-4 3-12 7-1-2 4-6z" fill="#148BF0"/>
<path transform="translate(901,428)" d="m0 0 6 2 13 6-4 3-5-2v-2l-4-1-5-2z" fill="#6766DC"/>
<path transform="translate(1112,1137)" d="m0 0 3 1v4l-9 4-3-1v-4z" fill="#6E73E8"/>
<path transform="translate(276,942)" d="m0 0 7 6 5 4 6 3 17 1v1h-20l-6-3-9-10z" fill="#4067D1"/>
<path transform="translate(1108,636)" d="m0 0h5l-2 5-8 4h-2l-1-4 4-1v-2h4z" fill="#7373EC"/>
<path transform="translate(1087,647)" d="m0 0 3 3-3 2-10 4-3-2 1-2 7-3z" fill="#7170E9"/>
<path transform="translate(1303,1018)" d="m0 0 3 1-2 4h-2l-1 3h-5l-1-3-2-1z" fill="#5953BF"/>
<path transform="translate(1227,1052)" d="m0 0h2v5l-9 3-2-1 1-2-2-1z" fill="#655DD8"/>
<path transform="translate(278,692)" d="m0 0 3 4-2 4-12-1-5-3 2-1 2 1h12z" fill="#5F5CCC"/>
<path transform="translate(1384,486)" d="m0 0h3l4 8v6l-5-4-3-7h2z" fill="#655DD8"/>
<path transform="translate(487,1099)" d="m0 0 5 4 1 2v11l-3 4h-7v-1l6-1 1-2v-9l-3-6z" fill="#97A2CF"/>
<path transform="translate(1089,611)" d="m0 0 4 1-9 6-7 2v-3z" fill="#7C89EB"/>
<path transform="translate(829,350)" d="m0 0 4 1 1 7-12-4v-2z" fill="#1A9AF4"/>
<path transform="translate(645,1049)" d="m0 0 5 2 12 6-1 1-7-1-7-4z" fill="#1F82E8"/>
<path transform="translate(181,370)" d="m0 0 4 1-15 8-5 4-2-1 5-5z" fill="#939ECA"/>
<path transform="translate(1325,1042)" d="m0 0 4 1v2l-9 4-4-1v-3l3-1 4 1v-2z" fill="#645DD8"/>
<path transform="translate(1229,581)" d="m0 0h7v2l-13 5-1-2 2-1 1-3z" fill="#6E75E7"/>
<path transform="translate(749,298)" d="m0 0 1 3-3 7v6l8 8-5-2-6-5 1-8z" fill="#6377E7"/>
<path transform="translate(980,1197)" d="m0 0 4 1 5-1 2 2-10 5-2-1v-5z" fill="#706DE7"/>
<path transform="translate(1224,625)" d="m0 0 4 1-4 3h-5v2l-4 2h-6l4-3z" fill="#6C72E4"/>
<path transform="translate(697,967)" d="m0 0 4 2 7 6 6 9-1 2-7-9-9-9z" fill="#565DCD"/>
<path transform="translate(1032,866)" d="m0 0 3 1-4 4-7 2h-5l4-3z" fill="#6D73E6"/>
<path transform="translate(532,842)" d="m0 0 4 2 8 7 2 1-1 2-10-6-3-3z" fill="#248FED"/>
<path transform="translate(1257,533)" d="m0 0 2 1-3 1v2h-3v2l-6 3-5-1 3-2z" fill="#6E76E8"/>
<path transform="translate(837,400)" d="m0 0 9 3 7 3-4 2-9-3z" fill="#6665DA"/>
<path transform="translate(482,350)" d="m0 0h7l5 4 1 3-6-2-7-3z" fill="#2EABF5"/>
<path transform="translate(1239,695)" d="m0 0h4v2l-10 5h-3v-3z" fill="#7171E9"/>
<path transform="translate(863,569)" d="m0 0 6 2 5 3-2 4h-3l-2-6-4-1z" fill="#1888ED"/>
<path transform="translate(1354,523)" d="m0 0 7 1 1 3-7 3h-3l-1-3 2-1z" fill="#5953BF"/>
<path transform="translate(1053,1313)" d="m0 0 5 1 4-1v2l-9 4h-3l1-5z" fill="#635CD5"/>
<path transform="translate(272,891)" d="m0 0 3 1-6 12-2 3-1-5z" fill="#2B81E2"/>
<path transform="translate(442,884)" d="m0 0 2 2-8 5-4 1 2-5z" fill="#40C8F8"/>
<path transform="translate(716,364)" d="m0 0 2 1-1 5-2 4v5l-3-3 1-6z" fill="#5953BF"/>
<path transform="translate(272,936)" d="m0 0 4 5 3 5 5 6-5-2v-2h-2l-6-10z" fill="#158BEF"/>
<path transform="translate(235,939)" d="m0 0 1 2 3 1 4 8-1 3-4-5-3-6z" fill="#288BEB"/>
<path transform="translate(1243,768)" d="m0 0 3 1-10 5-4 1-1 2-4-2z" fill="#6563D7"/>
<path transform="translate(755,289)" d="m0 0h8l3 2h-8l-6 5-2 2 1-5z" fill="#526BE2"/>
<path transform="translate(451,332)" d="m0 0 5 1 2 6-5-2-5-4z" fill="#2391EF"/>
<path transform="translate(740,511)" d="m0 0 9 3 4 2v2l-6-1-7-4z" fill="#2081E7"/>
<path transform="translate(892,385)" d="m0 0h6l9 5v2l-6-2-9-4z" fill="#1D93EF"/>
<path transform="translate(1063,1203)" d="m0 0h4v2l-7 4-4-1 3-3z" fill="#6D74E6"/>
<path transform="translate(240,484)" d="m0 0h7v1l-7 2-8 8v-3l5-6z" fill="#3B99E8"/>
<path transform="translate(757,211)" d="m0 0 9 3 2 2-1 1h-5l-2-4-3 1z" fill="#31A9F3"/>
<path transform="translate(1102,1136)" d="m0 0 6 1-2 4-5 2-2-3 2-2z" fill="#737CF1"/>
<path transform="translate(1159,578)" d="m0 0 4 1-11 6-2-1 3-3z" fill="#7F8DEE"/>
<path transform="translate(1188,565)" d="m0 0 3 1-8 5-4 1 1-3z" fill="#7E8DEE"/>
<path transform="translate(1278,382)" d="m0 0 7 2-2 2-7 1z" fill="#1996F2"/>
<path transform="translate(1020,1327)" d="m0 0 4 3-4 2 1 2-6 1 2-4 3-1z" fill="#5B54C3"/>
<path transform="translate(770,448)" d="m0 0 9 3 4 3-4 1-5-3z" fill="#2987E6"/>
<path transform="translate(1241,236)" d="m0 0 4 1z" fill="#5850B0"/>
<path transform="translate(1245,237)" d="m0 0 3 1z" fill="#5F5BCB"/>
<path transform="translate(1238,235)" d="m0 0 3 1z" fill="#4B3E92"/>
<path transform="translate(1248,238)" d="m0 0 2 1z" fill="#5953BF"/>
<path transform="translate(1253,240)" d="m0 0" fill="#6C6CE5"/>
<path transform="translate(1251,239)" d="m0 0" fill="#5953BF"/>
<path transform="translate(1235,234)" d="m0 0" fill="#A7B7CD"/>
</svg>
